<svg display="none" xmlns="http://www.w3.org/2000/svg">
  <symbol id="pfone" viewBox="0 0 18 18">
    <path d="M17.01 12.38C15.78 12.38 14.59 12.18 13.48 11.82C13.13 11.7 12.74 11.79 12.47 12.06L10.9 14.03C8.07 12.68 5.42 10.13 4.01 7.2L5.96 5.54C6.23 5.26 6.31 4.87 6.2 4.52C5.83 3.41 5.64 2.22 5.64 0.99C5.64 0.45 5.19 0 4.65 0H1.19C0.65 0 0 0.24 0 0.99C0 10.28 7.73 18 17.01 18C17.72 18 18 17.37 18 16.82V13.37C18 12.83 17.55 12.38 17.01 12.38Z" fill="#292929"/>
  </symbol>

  <symbol id="burger" viewBox="0 0 18 12">
    <path id="Vector" d="M0 11C0 11.5523 0.447715 12 1 12H17C17.5523 12 18 11.5523 18 11C18 10.4477 17.5523 10 17 10H1C0.447716 10 0 10.4477 0 11ZM0 6C0 6.55228 0.447715 7 1 7H17C17.5523 7 18 6.55228 18 6C18 5.44772 17.5523 5 17 5H1C0.447716 5 0 5.44772 0 6ZM1 0C0.447716 0 0 0.447715 0 1C0 1.55228 0.447715 2 1 2H17C17.5523 2 18 1.55228 18 1C18 0.447715 17.5523 0 17 0H1Z" fill="#292929"/>
  </symbol>

  <symbol id="cross" viewBox="0 0 16 16">
    <path d="M15.1943 2.41714C15.6393 1.97216 15.6393 1.2507 15.1943 0.805714V0.805714C14.7493 0.36073 14.0278 0.360731 13.5829 0.805714L8 6.38857L2.41714 0.805715C1.97216 0.360732 1.2507 0.36073 0.805714 0.805714V0.805714C0.36073 1.2507 0.360731 1.97216 0.805714 2.41714L6.38857 8L0.805715 13.5829C0.360732 14.0278 0.36073 14.7493 0.805714 15.1943V15.1943C1.2507 15.6393 1.97216 15.6393 2.41714 15.1943L8 9.61143L13.5829 15.1943C14.0278 15.6393 14.7493 15.6393 15.1943 15.1943V15.1943C15.6393 14.7493 15.6393 14.0278 15.1943 13.5829L9.61143 8L15.1943 2.41714Z" fill="#292929"/>
  </symbol>

</svg>